<svg width="56" height="56" viewBox="0 0 56 56" fill="none" xmlns="http://www.w3.org/2000/svg">
<path d="M44.3327 32.6667C47.8094 29.26 51.3327 25.1767 51.3327 19.8333C51.3327 16.4297 49.9806 13.1655 47.5739 10.7588C45.1672 8.35208 41.903 7 38.4994 7C34.3927 7 31.4994 8.16667 27.9994 11.6667C24.4994 8.16667 21.606 7 17.4993 7C14.0957 7 10.8315 8.35208 8.42481 10.7588C6.0181 13.1655 4.66602 16.4297 4.66602 19.8333C4.66602 25.2 8.16602 29.2833 11.666 32.6667L27.9994 49L44.3327 32.6667Z" stroke="#1E40AF" stroke-width="2" stroke-linecap="round" stroke-linejoin="round"/>
<path d="M28.0004 11.6665L21.0937 18.5732C20.6197 19.0438 20.2434 19.6036 19.9866 20.2203C19.7298 20.837 19.5977 21.4985 19.5977 22.1665C19.5977 22.8345 19.7298 23.496 19.9866 24.1127C20.2434 24.7294 20.6197 25.2892 21.0937 25.7598C23.0071 27.6732 26.0637 27.7432 28.0937 25.9232L32.9237 21.4898C34.1344 20.3913 35.7106 19.7827 37.3454 19.7827C38.9802 19.7827 40.5564 20.3913 41.7671 21.4898L48.6737 27.6965" stroke="#1E40AF" stroke-width="2" stroke-linecap="round" stroke-linejoin="round"/>
<path d="M42.0007 35.0002L37.334 30.3335" stroke="#1E40AF" stroke-width="2" stroke-linecap="round" stroke-linejoin="round"/>
<path d="M35.0007 42.0002L30.334 37.3335" stroke="#1E40AF" stroke-width="2" stroke-linecap="round" stroke-linejoin="round"/>
</svg>
